<svg width="18" height="18" viewBox="0 0 18 18" fill="none" xmlns="http://www.w3.org/2000/svg">
<path fill-rule="evenodd" clip-rule="evenodd" d="M9.52701 0.797198C9.18489 0.68316 8.81502 0.683161 8.47291 0.797198L1.80625 3.01942C1.12567 3.24628 0.666626 3.88318 0.666626 4.60056V6.49993C0.666626 7.4204 1.41282 8.16659 2.33329 8.16659H3.16663V12.3333H2.33329C1.41282 12.3333 0.666626 13.0795 0.666626 13.9999V15.6666C0.666626 16.5871 1.41282 17.3333 2.33329 17.3333H15.6666C16.5871 17.3333 17.3333 16.5871 17.3333 15.6666V13.9999C17.3333 13.0795 16.5871 12.3333 15.6666 12.3333H14.8333V8.16659H15.6666C16.5871 8.16659 17.3333 7.4204 17.3333 6.49993V4.60056C17.3333 3.88317 16.8742 3.24628 16.1937 3.01942L9.52701 0.797198ZM13.1666 12.3333V8.16659H11.5V12.3333H13.1666ZM9.83329 12.3333V8.16659H8.16663V12.3333H9.83329ZM6.49996 12.3333V8.16659H4.83329V12.3333H6.49996ZM2.33329 13.9999V15.6666H15.6666V13.9999H2.33329ZM2.33329 6.49993L2.33329 4.60056L8.99996 2.37834L15.6666 4.60056V6.49993H2.33329Z" fill="#98A2B3"/>
</svg>
