<svg width="30" height="25" viewBox="0 0 30 25" fill="none" xmlns="http://www.w3.org/2000/svg">
<rect x="4.6123" y="0.282227" width="18.4286" height="11.6714" fill="#D7DBEC"/>
<mask id="mask0_1231_110047" style="mask-type:luminance" maskUnits="userSpaceOnUse" x="4" y="0" width="20" height="12">
<rect x="4.6123" y="0.282227" width="18.4286" height="11.6714" fill="white"/>
</mask>
<g mask="url(#mask0_1231_110047)">
<path fill-rule="evenodd" clip-rule="evenodd" d="M13.8268 3.04667C15.5232 3.04667 16.8983 4.4218 16.8983 6.1181C16.8983 7.8144 15.5232 9.18953 13.8268 9.18953C12.1305 9.18953 10.7554 7.8144 10.7554 6.1181C10.7554 4.4218 12.1305 3.04667 13.8268 3.04667ZM23.6554 -3.09619C25.3517 -3.09619 26.7268 -1.72106 26.7268 -0.0247571C26.7268 1.67155 25.3517 3.04667 23.6554 3.04667C21.9591 3.04667 20.584 1.67155 20.584 -0.0247571C20.584 -1.72106 21.9591 -3.09619 23.6554 -3.09619ZM23.6554 9.18953C25.3517 9.18953 26.7268 10.5647 26.7268 12.261C26.7268 13.9573 25.3517 15.3324 23.6554 15.3324C21.9591 15.3324 20.584 13.9573 20.584 12.261C20.584 10.5647 21.9591 9.18953 23.6554 9.18953ZM3.99819 -3.09619C5.69449 -3.09619 7.06961 -1.72107 7.06961 -0.0247629C7.06961 1.67154 5.69449 3.04667 3.99819 3.04667C2.30188 3.04667 0.926758 1.67154 0.926758 -0.0247629C0.926758 -1.72107 2.30188 -3.09619 3.99819 -3.09619ZM3.99828 9.18953C5.69458 9.18953 7.06971 10.5647 7.06971 12.261C7.06971 13.9573 5.69458 15.3324 3.99828 15.3324C2.30197 15.3324 0.926848 13.9573 0.926848 12.261C0.926848 10.5647 2.30197 9.18953 3.99828 9.18953Z" fill="#95A4B8"/>
</g>
<path fill-rule="evenodd" clip-rule="evenodd" d="M0.92627 8.58203C0.92627 6.37289 2.71713 4.58203 4.92627 4.58203H22.7263C24.9354 4.58203 26.7263 6.37289 26.7263 8.58203V20.8535C26.7263 23.0626 24.9354 24.8535 22.7263 24.8535H4.92627C2.71713 24.8535 0.92627 23.0626 0.92627 20.8535L0.92627 8.58203Z" fill="#336DFF"/>
<path fill-rule="evenodd" clip-rule="evenodd" d="M19.9692 14.7179C19.9692 12.852 21.4819 11.3394 23.3478 11.3394H29.1835V18.0965H23.3478C21.4819 18.0965 19.9692 16.5839 19.9692 14.7179Z" fill="#0030A6"/>
<circle cx="23.3477" cy="14.7178" r="0.921429" fill="white"/>
</svg>
