<svg width="29" height="27" viewBox="0 0 29 27" fill="none" xmlns="http://www.w3.org/2000/svg">
<path d="M23.2119 21.894L24.5244 23.2065L23.2119 21.894ZM23.2119 21.894L22.7744 21.4565L23.2119 21.894ZM19.2744 17.9565L17.5684 16.2505L19.2744 17.9565ZM19.2744 17.9565L20.5869 19.269M19.2744 17.9565L20.5869 19.269M20.5869 19.269L21.0244 19.7065L20.5869 19.269ZM22.7744 14.5193C22.4863 14.4778 22.1939 14.4565 21.8994 14.4565C21.6049 14.4565 21.3125 14.4778 21.0244 14.5193V17.0816V17.9565C21.0244 17.7245 21.1166 17.5019 21.2807 17.3378C21.4448 17.1737 21.6673 17.0815 21.8994 17.0815C22.1315 17.0815 22.354 17.1737 22.5181 17.3378C22.6822 17.5019 22.7744 17.7245 22.7744 17.9565V17.0815V14.5193ZM24.5244 19.7065C24.7565 19.7065 24.979 19.7987 25.1431 19.9628C25.3072 20.1269 25.3994 20.3495 25.3994 20.5815C25.3994 20.8136 25.3072 21.0362 25.1431 21.2003C24.979 21.3644 24.7565 21.4565 24.5244 21.4565H25.3994H27.9616C28.0032 21.1684 28.0244 20.8761 28.0244 20.5815C28.0244 20.287 28.0032 19.9947 27.9616 19.7065H25.3994H24.5244ZM22.7744 24.0815V26.6437C22.4863 26.6853 22.1939 26.7065 21.8994 26.7065C21.6049 26.7065 21.3125 26.6853 21.0244 26.6437V24.0815V23.2065C21.0244 23.4386 21.1166 23.6612 21.2807 23.8253C21.4448 23.9894 21.6673 24.0815 21.8994 24.0815C22.1315 24.0815 22.354 23.9894 22.5181 23.8253C22.6822 23.6612 22.7744 23.4386 22.7744 23.2065V24.0815ZM19.2744 21.4565C19.0423 21.4565 18.8198 21.3644 18.6557 21.2003C18.4916 21.0362 18.3994 20.8136 18.3994 20.5815C18.3994 20.3495 18.4916 20.1269 18.6557 19.9628C18.8198 19.7987 19.0423 19.7065 19.2744 19.7065H18.3994H15.8372C15.7956 19.9947 15.7744 20.287 15.7744 20.5815C15.7744 20.8761 15.7956 21.1684 15.8372 21.4565H18.3994H19.2744Z" fill="#2754F3" stroke="#58E6FF" stroke-width="30"/>
<path d="M15.2618 1.33171C14.9336 1.00364 14.4886 0.819336 14.0245 0.819336C13.5605 0.819336 13.1155 1.00364 12.7873 1.33171L1.15504 12.9622C1.07369 13.0436 1.00916 13.1401 0.965127 13.2464C0.921099 13.3527 0.898438 13.4667 0.898438 13.5817C0.898438 13.6968 0.921099 13.8107 0.965127 13.917C1.00916 14.0233 1.07369 14.1199 1.15504 14.2012C1.31934 14.3655 1.54219 14.4578 1.77454 14.4578C1.88959 14.4578 2.00352 14.4352 2.10981 14.3911C2.21611 14.3471 2.31269 14.2826 2.39404 14.2012L14.0245 2.56896L25.655 14.2012C25.8193 14.3655 26.0422 14.4578 26.2745 14.4578C26.5069 14.4578 26.7297 14.3655 26.894 14.2012C27.0583 14.0369 27.1506 13.8141 27.1506 13.5817C27.1506 13.3494 27.0583 13.1265 26.894 12.9622L22.7745 8.84446V3.08171C22.7745 2.84965 22.6824 2.62709 22.5183 2.46299C22.3542 2.2989 22.1316 2.20671 21.8995 2.20671H20.1495C19.9175 2.20671 19.6949 2.2989 19.5308 2.46299C19.3667 2.62709 19.2745 2.84965 19.2745 3.08171V5.34446L15.2618 1.33171Z" fill="#2754F3"/>
<path d="M14.0244 4.46924L22.2704 12.7152C20.8144 12.6465 19.3679 12.9831 18.0919 13.6878C16.8159 14.3924 15.7605 15.4374 15.0432 16.7063C14.326 17.9752 13.9749 19.4183 14.0293 20.8749C14.0836 22.3315 14.5411 23.7445 15.3509 24.9565H6.14941C5.45322 24.9565 4.78554 24.6799 4.29326 24.1876C3.80098 23.6954 3.52441 23.0277 3.52441 22.3315V14.9692L14.0244 4.46924Z" fill="#D7DBEC"/>
</svg>
