<svg width="28" height="29" viewBox="0 0 28 29" fill="none" xmlns="http://www.w3.org/2000/svg">
<circle cx="14.2549" cy="14.4902" r="13.7451" fill="#336DFF"/>
<mask id="mask0_1282_85222" style="mask-type:luminance" maskUnits="userSpaceOnUse" x="0" y="0" width="28" height="29">
<circle cx="14.2549" cy="14.4902" r="13.7451" fill="white"/>
</mask>
<g mask="url(#mask0_1282_85222)">
<circle cx="14.255" cy="11.0964" r="4.58171" fill="#B6CBFF"/>
<path fill-rule="evenodd" clip-rule="evenodd" d="M14.4246 29.254C22.1095 29.254 28.3394 22.7962 28.3394 14.8301C28.3394 6.86404 22.1095 0.40625 14.4246 0.40625C6.73964 0.40625 0.509766 6.86404 0.509766 14.8301C0.509766 22.7962 6.73964 29.254 14.4246 29.254Z" fill="#336DFF"/>
</g>
<path d="M14.5171 18.1297C9.9336 18.1297 6.22119 19.9859 6.22119 22.2777V24.3516H22.813V22.2777C22.813 19.9859 19.1005 18.1297 14.5171 18.1297ZM10.3691 11.9078C10.3691 13.0079 10.8061 14.063 11.584 14.8409C12.3619 15.6187 13.417 16.0558 14.5171 16.0558C15.6172 16.0558 16.6722 15.6187 17.4501 14.8409C18.228 14.063 18.665 13.0079 18.665 11.9078M13.9986 4.64893C13.6875 4.64893 13.4801 4.86669 13.4801 5.16742V8.27837H12.4431V5.68591C12.4431 5.68591 10.1099 6.57772 10.1099 9.5746C10.1099 9.5746 9.33215 9.71978 9.33215 10.8708H19.702C19.6501 9.71978 18.9243 9.5746 18.9243 9.5746C18.9243 6.57772 16.591 5.68591 16.591 5.68591V8.27837H15.5541V5.16742C15.5541 4.86669 15.357 4.64893 15.0356 4.64893H13.9986Z" fill="#B6CBFF"/>
</svg>
