<svg width="29" height="32" viewBox="0 0 29 32" fill="none" xmlns="http://www.w3.org/2000/svg">
<g clip-path="url(#clip0_1446_122569)">
<path d="M23.2119 22.894L24.5244 24.2065L23.2119 22.894ZM23.2119 22.894L22.7744 22.4565L23.2119 22.894ZM19.2744 18.9565L17.5684 17.2505L19.2744 18.9565ZM19.2744 18.9565L20.5869 20.269M19.2744 18.9565L20.5869 20.269M20.5869 20.269L21.0244 20.7065L20.5869 20.269ZM22.7744 15.5193C22.4863 15.4778 22.1939 15.4565 21.8994 15.4565C21.6049 15.4565 21.3125 15.4778 21.0244 15.5193V18.0816V18.9565C21.0244 18.7245 21.1166 18.5019 21.2807 18.3378C21.4448 18.1737 21.6673 18.0815 21.8994 18.0815C22.1315 18.0815 22.354 18.1737 22.5181 18.3378C22.6822 18.5019 22.7744 18.7245 22.7744 18.9565V18.0815V15.5193ZM24.5244 20.7065C24.7565 20.7065 24.979 20.7987 25.1431 20.9628C25.3072 21.1269 25.3994 21.3495 25.3994 21.5815C25.3994 21.8136 25.3072 22.0362 25.1431 22.2003C24.979 22.3644 24.7565 22.4565 24.5244 22.4565H25.3994H27.9616C28.0032 22.1684 28.0244 21.8761 28.0244 21.5815C28.0244 21.287 28.0032 20.9947 27.9616 20.7065H25.3994H24.5244ZM22.7744 25.0815V27.6437C22.4863 27.6853 22.1939 27.7065 21.8994 27.7065C21.6049 27.7065 21.3125 27.6853 21.0244 27.6437V25.0815V24.2065C21.0244 24.4386 21.1166 24.6612 21.2807 24.8253C21.4448 24.9894 21.6673 25.0815 21.8994 25.0815C22.1315 25.0815 22.354 24.9894 22.5181 24.8253C22.6822 24.6612 22.7744 24.4386 22.7744 24.2065V25.0815ZM19.2744 22.4565C19.0423 22.4565 18.8198 22.3644 18.6557 22.2003C18.4916 22.0362 18.3994 21.8136 18.3994 21.5815C18.3994 21.3495 18.4916 21.1269 18.6557 20.9628C18.8198 20.7987 19.0423 20.7065 19.2744 20.7065H18.3994H15.8372C15.7956 20.9947 15.7744 21.287 15.7744 21.5815C15.7744 21.8761 15.7956 22.1684 15.8372 22.4565H18.3994H19.2744Z" fill="#2754F3" stroke="#58E6FF" stroke-width="30"/>
<path d="M15.2618 2.33171C14.9336 2.00364 14.4886 1.81934 14.0245 1.81934C13.5605 1.81934 13.1155 2.00364 12.7873 2.33171L1.15504 13.9622C1.07369 14.0436 1.00916 14.1401 0.965127 14.2464C0.921099 14.3527 0.898438 14.4667 0.898438 14.5817C0.898438 14.6968 0.921099 14.8107 0.965127 14.917C1.00916 15.0233 1.07369 15.1199 1.15504 15.2012C1.31934 15.3655 1.54219 15.4578 1.77454 15.4578C1.88959 15.4578 2.00352 15.4352 2.10981 15.3911C2.21611 15.3471 2.31269 15.2826 2.39404 15.2012L14.0245 3.56896L25.655 15.2012C25.8193 15.3655 26.0422 15.4578 26.2745 15.4578C26.5069 15.4578 26.7297 15.3655 26.894 15.2012C27.0583 15.0369 27.1506 14.8141 27.1506 14.5817C27.1506 14.3494 27.0583 14.1265 26.894 13.9622L22.7745 9.84446V4.08171C22.7745 3.84965 22.6824 3.62709 22.5183 3.46299C22.3542 3.2989 22.1316 3.20671 21.8995 3.20671H20.1495C19.9175 3.20671 19.6949 3.2989 19.5308 3.46299C19.3667 3.62709 19.2745 3.84965 19.2745 4.08171V6.34446L15.2618 2.33171Z" fill="#2754F3"/>
<path d="M14.0244 5.46924L22.2704 13.7152C20.8144 13.6465 19.3679 13.9831 18.0919 14.6878C16.8159 15.3924 15.7605 16.4374 15.0432 17.7063C14.326 18.9752 13.9749 20.4183 14.0293 21.8749C14.0836 23.3315 14.5411 24.7445 15.3509 25.9565H6.14941C5.45322 25.9565 4.78554 25.6799 4.29326 25.1876C3.80098 24.6954 3.52441 24.0277 3.52441 23.3315V15.9692L14.0244 5.46924Z" fill="#D7DBEC"/>
</g>
<defs>
<clipPath id="clip0_1446_122569">
<rect width="28" height="32" fill="white" transform="translate(0.0380859)"/>
</clipPath>
</defs>
</svg>
