<svg width="29" height="32" viewBox="0 0 29 32" fill="none" xmlns="http://www.w3.org/2000/svg">
<g clip-path="url(#clip0_1231_110141)">
<path d="M23.2129 22.894L24.5254 24.2065L23.2129 22.894ZM23.2129 22.894L22.7754 22.4565L23.2129 22.894ZM19.2754 18.9565L17.5694 17.2505L19.2754 18.9565ZM19.2754 18.9565L20.5879 20.269M19.2754 18.9565L20.5879 20.269M20.5879 20.269L21.0254 20.7065L20.5879 20.269ZM22.7754 15.5193C22.4873 15.4778 22.1949 15.4565 21.9004 15.4565C21.6059 15.4565 21.3135 15.4778 21.0254 15.5193V18.0816V18.9565C21.0254 18.7245 21.1176 18.5019 21.2817 18.3378C21.4458 18.1737 21.6683 18.0815 21.9004 18.0815C22.1325 18.0815 22.355 18.1737 22.5191 18.3378C22.6832 18.5019 22.7754 18.7245 22.7754 18.9565V18.0815V15.5193ZM24.5254 20.7065C24.7575 20.7065 24.98 20.7987 25.1441 20.9628C25.3082 21.1269 25.4004 21.3495 25.4004 21.5815C25.4004 21.8136 25.3082 22.0362 25.1441 22.2003C24.98 22.3644 24.7575 22.4565 24.5254 22.4565H25.4004H27.9626C28.0042 22.1684 28.0254 21.8761 28.0254 21.5815C28.0254 21.287 28.0042 20.9947 27.9626 20.7065H25.4004H24.5254ZM22.7754 25.0815V27.6437C22.4873 27.6853 22.1949 27.7065 21.9004 27.7065C21.6059 27.7065 21.3135 27.6853 21.0254 27.6437V25.0815V24.2065C21.0254 24.4386 21.1176 24.6612 21.2817 24.8253C21.4458 24.9894 21.6683 25.0815 21.9004 25.0815C22.1325 25.0815 22.355 24.9894 22.5191 24.8253C22.6832 24.6612 22.7754 24.4386 22.7754 24.2065V25.0815ZM19.2754 22.4565C19.0433 22.4565 18.8208 22.3644 18.6567 22.2003C18.4926 22.0362 18.4004 21.8136 18.4004 21.5815C18.4004 21.3495 18.4926 21.1269 18.6567 20.9628C18.8208 20.7987 19.0433 20.7065 19.2754 20.7065H18.4004H15.8382C15.7966 20.9947 15.7754 21.287 15.7754 21.5815C15.7754 21.8761 15.7966 22.1684 15.8382 22.4565H18.4004H19.2754Z" fill="#2754F3" stroke="#58E6FF" stroke-width="30"/>
<path d="M15.2628 2.33171C14.9346 2.00364 14.4896 1.81934 14.0255 1.81934C13.5615 1.81934 13.1164 2.00364 12.7883 2.33171L1.15602 13.9622C1.07467 14.0436 1.01013 14.1401 0.966104 14.2464C0.922075 14.3527 0.899414 14.4667 0.899414 14.5817C0.899414 14.6968 0.922075 14.8107 0.966104 14.917C1.01013 15.0233 1.07467 15.1199 1.15602 15.2012C1.32032 15.3655 1.54316 15.4578 1.77552 15.4578C1.89057 15.4578 2.0045 15.4352 2.11079 15.3911C2.21708 15.3471 2.31367 15.2826 2.39502 15.2012L14.0255 3.56896L25.656 15.2012C25.8203 15.3655 26.0432 15.4578 26.2755 15.4578C26.5079 15.4578 26.7307 15.3655 26.895 15.2012C27.0593 15.0369 27.1516 14.8141 27.1516 14.5817C27.1516 14.3494 27.0593 14.1265 26.895 13.9622L22.7755 9.84446V4.08171C22.7755 3.84965 22.6833 3.62709 22.5192 3.46299C22.3551 3.2989 22.1326 3.20671 21.9005 3.20671H20.1505C19.9185 3.20671 19.6959 3.2989 19.5318 3.46299C19.3677 3.62709 19.2755 3.84965 19.2755 4.08171V6.34446L15.2628 2.33171Z" fill="#2754F3"/>
<path d="M14.0254 5.46924L22.2714 13.7152C20.8154 13.6465 19.3689 13.9831 18.0929 14.6878C16.8169 15.3924 15.7615 16.4374 15.0442 17.7063C14.3269 18.9752 13.9759 20.4183 14.0302 21.8749C14.0846 23.3315 14.5421 24.7445 15.3519 25.9565H6.15039C5.4542 25.9565 4.78652 25.6799 4.29424 25.1876C3.80195 24.6954 3.52539 24.0277 3.52539 23.3315V15.9692L14.0254 5.46924Z" fill="#D7DBEC"/>
</g>
<defs>
<clipPath id="clip0_1231_110141">
<rect width="28" height="32" fill="white" transform="translate(0.0385742)"/>
</clipPath>
</defs>
</svg>
