<svg width="30" height="30" viewBox="0 0 30 30" fill="none" xmlns="http://www.w3.org/2000/svg">
<circle cx="15" cy="15" r="15" fill="#336DFF"/>
<path d="M19.1689 14.5225C18.2051 14.5225 17.2733 14.0921 16.5439 13.3112C15.8347 12.5495 15.4015 11.5337 15.3251 10.4518C15.2436 9.29777 15.5956 8.23652 16.3161 7.46309C17.0366 6.68965 18.0439 6.27246 19.1689 6.27246C20.2859 6.27246 21.2961 6.69715 22.0142 7.46871C22.7394 8.24777 23.0923 9.30715 23.0108 10.4514C22.9325 11.5346 22.4998 12.55 21.792 13.3107C21.0645 14.0921 20.1331 14.5225 19.1689 14.5225ZM25.3484 22.7725H12.9898C12.7911 22.7735 12.5948 22.729 12.4161 22.6423C12.2373 22.5556 12.0808 22.429 11.9586 22.2723C11.829 22.1024 11.7395 21.9055 11.6968 21.6961C11.6541 21.4868 11.6593 21.2705 11.712 21.0634C12.1067 19.4786 13.0845 18.1642 14.5395 17.2628C15.8309 16.4631 17.4748 16.0225 19.1689 16.0225C20.8962 16.0225 22.497 16.4443 23.7959 17.2436C25.2542 18.1403 26.2334 19.4621 26.6262 21.0662C26.6783 21.2734 26.683 21.4897 26.6398 21.699C26.5966 21.9082 26.5067 22.105 26.3769 22.2746C26.2548 22.4306 26.0987 22.5566 25.9204 22.6429C25.7421 22.7291 25.5465 22.7735 25.3484 22.7725ZM10.3095 14.71C8.65999 14.71 7.20967 13.1762 7.07514 11.2914C7.00858 10.3257 7.30952 9.43277 7.91889 8.77793C8.5217 8.12965 9.37202 7.77246 10.3095 7.77246C11.247 7.77246 12.0908 8.13152 12.6969 8.78356C13.3109 9.44356 13.6109 10.3346 13.5406 11.2923C13.4061 13.1767 11.9562 14.71 10.3095 14.71ZM13.3873 16.1842C12.5628 15.7811 11.4926 15.5795 10.31 15.5795C8.92905 15.5795 7.58795 15.9395 6.53327 16.5929C5.33749 17.335 4.53311 18.4154 4.20827 19.72C4.16073 19.9076 4.15623 20.1036 4.19511 20.2932C4.234 20.4828 4.31525 20.6612 4.4328 20.815C4.54434 20.9581 4.68723 21.0738 4.85049 21.1532C5.01374 21.2325 5.19302 21.2733 5.37452 21.2725H10.5776C10.6655 21.2724 10.7505 21.2416 10.8179 21.1853C10.8853 21.1291 10.9309 21.0509 10.9465 20.9645C10.9517 20.935 10.9583 20.9054 10.9658 20.8764C11.3633 19.2798 12.2947 17.9307 13.6709 16.9473C13.7215 16.9108 13.7623 16.8623 13.7894 16.8061C13.8165 16.7499 13.8292 16.6878 13.8262 16.6255C13.8233 16.5631 13.8049 16.5025 13.7726 16.4491C13.7403 16.3957 13.6952 16.3512 13.6414 16.3196C13.5678 16.2765 13.4834 16.2311 13.3873 16.1842Z" fill="#B6CBFF"/>
</svg>
