<svg width="34" height="30" viewBox="0 0 34 30" fill="none" xmlns="http://www.w3.org/2000/svg">
<path fill-rule="evenodd" clip-rule="evenodd" d="M0 17.3431C0 16.223 0 15.6629 0.217987 15.2351C0.409734 14.8588 0.715695 14.5528 1.09202 14.3611C1.51984 14.1431 2.0799 14.1431 3.2 14.1431H9.19517V25.4602H0L0 17.3431Z" fill="#336DFF"/>
<path fill-rule="evenodd" clip-rule="evenodd" d="M9.19434 10.2698C9.19434 9.14972 9.19434 8.58967 9.41232 8.16184C9.60407 7.78552 9.91003 7.47956 10.2864 7.28781C10.7142 7.06982 11.2742 7.06982 12.3943 7.06982H18.3895V25.4602H9.19434V10.2698Z" fill="#0030A6"/>
<path fill-rule="evenodd" clip-rule="evenodd" d="M18.3901 3.9041C18.3901 2.784 18.3901 2.22394 18.6081 1.79612C18.7999 1.4198 19.1058 1.11384 19.4822 0.922089C19.91 0.704102 20.47 0.704102 21.5901 0.704102H24.3853C25.5054 0.704102 26.0655 0.704102 26.4933 0.922089C26.8696 1.11384 27.1756 1.4198 27.3673 1.79612C27.5853 2.22394 27.5853 2.784 27.5853 3.9041V22.2603C27.5853 23.3804 27.5853 23.9405 27.3673 24.3683C27.1756 24.7446 26.8696 25.0506 26.4933 25.2423C26.0655 25.4603 25.5054 25.4603 24.3853 25.4603H18.3901V3.9041Z" fill="#336DFF"/>
<path fill-rule="evenodd" clip-rule="evenodd" d="M27.2316 16.2651C23.5205 16.2651 20.5121 19.2736 20.5121 22.9847C20.5121 26.6958 23.5205 29.7042 27.2316 29.7042C30.9427 29.7042 33.9512 26.6958 33.9512 22.9847C33.9512 19.2736 30.9427 16.2651 27.2316 16.2651Z" fill="#D7DBEC"/>
<mask id="mask0_1231_110037" style="mask-type:luminance" maskUnits="userSpaceOnUse" x="20" y="16" width="14" height="14">
<path fill-rule="evenodd" clip-rule="evenodd" d="M27.2316 16.2651C23.5205 16.2651 20.5121 19.2736 20.5121 22.9847C20.5121 26.6958 23.5205 29.7042 27.2316 29.7042C30.9427 29.7042 33.9512 26.6958 33.9512 22.9847C33.9512 19.2736 30.9427 16.2651 27.2316 16.2651Z" fill="white"/>
</mask>
<g mask="url(#mask0_1231_110037)">
<path fill-rule="evenodd" clip-rule="evenodd" d="M34.6582 14.4966H27.2313V23.6501L34.6582 28.643V14.4966Z" fill="#A1A7C4"/>
</g>
</svg>
