<svg width="35" height="34" viewBox="0 0 35 34" fill="none" xmlns="http://www.w3.org/2000/svg">
<g clip-path="url(#clip0_1238_110150)">
<rect x="7.38379" y="10.8242" width="25.3672" height="19.457" fill="#D7DBEC"/>
<path d="M29.9148 7.4375H9.44238C7.18457 7.4375 5.3252 9.26434 5.3252 11.5102V27.8023C5.3252 30.0482 7.18457 31.875 9.44238 31.875H29.8955C32.1533 31.875 34.0127 30.1365 34.0127 27.8906V11.5102C34.0127 9.26434 32.1746 7.4375 29.9148 7.4375ZM24.7915 11.5109C25.3949 11.5145 25.9836 11.6968 26.4835 12.0347C26.9834 12.3726 27.372 12.8509 27.6004 13.4094C27.8287 13.9679 27.8866 14.5815 27.7666 15.1728C27.6467 15.7641 27.3543 16.3067 26.9264 16.732C26.4984 17.1574 25.9541 17.4465 25.3621 17.5628C24.77 17.6792 24.1568 17.6176 23.5997 17.3859C23.0426 17.1541 22.5666 16.7626 22.2318 16.2607C21.8969 15.7588 21.7183 15.1689 21.7182 14.5655C21.7214 13.7531 22.0468 12.9751 22.623 12.4022C23.1991 11.8294 23.9791 11.5086 24.7915 11.5102V11.5109ZM9.41516 29.839C8.28625 29.839 7.43227 28.9259 7.43227 27.803V23.4979L13.4394 18.1329C14.0266 17.6163 14.7879 17.3416 15.5697 17.3642C16.3515 17.3867 17.0957 17.7049 17.6522 18.2544L21.8119 22.3789L14.308 29.8383L9.41516 29.839ZM31.8877 27.8023C31.8876 28.0699 31.8348 28.3349 31.7322 28.5821C31.6297 28.8293 31.4794 29.0539 31.29 29.243C31.1006 29.4321 30.8758 29.582 30.6284 29.6841C30.3811 29.7863 30.116 29.8387 29.8484 29.8383H17.2119L24.9868 22.1133C25.5385 21.6478 26.2366 21.3917 26.9584 21.3897C27.6803 21.3878 28.3797 21.6402 28.9339 22.1027L31.8877 24.6095V27.8023Z" fill="#336DFF"/>
<path d="M25.5127 2.125H4.2627C3.13553 2.125 2.05452 2.57277 1.25749 3.3698C0.460462 4.16683 0.0126953 5.24783 0.0126953 6.375L0.0126953 23.375C0.0134726 24.3173 0.326823 25.2326 0.903647 25.9777C1.48047 26.7228 2.28817 27.2554 3.2002 27.4922V10.0938C3.2002 8.82568 3.70393 7.60955 4.60059 6.7129C5.49725 5.81624 6.71338 5.3125 7.98145 5.3125H29.6299C29.3931 4.40048 28.8605 3.59278 28.1154 3.01595C27.3703 2.43913 26.455 2.12578 25.5127 2.125Z" fill="#336DFF"/>
</g>
<defs>
<clipPath id="clip0_1238_110150">
<rect width="34" height="34" fill="white" transform="translate(0.0126953)"/>
</clipPath>
</defs>
</svg>
