<svg width="40" height="32" viewBox="0 0 40 32" fill="none" xmlns="http://www.w3.org/2000/svg">
<g clip-path="url(#clip0_1231_110132)">
<path fill-rule="evenodd" clip-rule="evenodd" d="M0.680664 6.10655C0.680664 3.86633 0.680664 2.74623 1.11664 1.89058C1.50013 1.13793 2.11205 0.52601 2.8647 0.142517C3.72035 -0.293457 4.84045 -0.293457 7.08066 -0.293457L20.2804 -0.293457C22.5206 -0.293457 23.6407 -0.293457 24.4963 0.142517C25.249 0.52601 25.8609 1.13793 26.2444 1.89058C26.6804 2.74623 26.6804 3.86633 26.6804 6.10654V19.7063H7.08066C4.84045 19.7063 3.72035 19.7063 2.8647 19.2703C2.11205 18.8868 1.50013 18.2749 1.11664 17.5223C0.680664 16.6666 0.680664 15.5465 0.680664 13.3063V6.10655Z" fill="#336DFF"/>
<path d="M0.680664 16.5059H26.6804V19.7058H3.88063C2.11334 19.7058 0.680664 18.2732 0.680664 16.5059Z" fill="#152232"/>
<path fill-rule="evenodd" clip-rule="evenodd" d="M26.6797 4.50635H31.6157C33.0201 4.50635 33.7223 4.50635 34.3453 4.71689C34.8963 4.90311 35.4001 5.20727 35.8216 5.60817C36.298 6.06142 36.6251 6.6828 37.2792 7.92557L39.4795 12.1063V19.7062H26.6797V4.50635Z" fill="#131523"/>
<path fill-rule="evenodd" clip-rule="evenodd" d="M28.6802 6.90674H33.8801L36.6801 12.1067H28.6802L28.6802 6.90674Z" fill="white"/>
<circle cx="8.28023" cy="19.7065" r="3.99995" fill="#A1A7C4"/>
<circle cx="8.28065" cy="19.7064" r="1.59998" fill="white"/>
<circle cx="32.6801" cy="19.7065" r="3.99995" fill="#A1A7C4"/>
<circle cx="32.6801" cy="19.7064" r="1.59998" fill="white"/>
</g>
<defs>
<clipPath id="clip0_1231_110132">
<rect width="39" height="32" fill="white" transform="translate(0.512695)"/>
</clipPath>
</defs>
</svg>
