<svg width="49" height="26" viewBox="0 0 49 26" fill="none" xmlns="http://www.w3.org/2000/svg">
<path fill-rule="evenodd" clip-rule="evenodd" d="M6.93359 6.39999C6.93359 4.15979 6.93359 3.03969 7.36957 2.18404C7.75306 1.43139 8.36498 0.819467 9.11763 0.435974C9.97328 0 11.0934 0 13.3336 0L28.7003 0C30.9405 0 32.0606 0 32.9162 0.435974C33.6689 0.819467 34.2808 1.43139 34.6643 2.18404C35.1003 3.03969 35.1003 4.15979 35.1003 6.4V21.6667H13.3336C11.0934 21.6667 9.97328 21.6667 9.11763 21.2307C8.36498 20.8472 7.75306 20.2353 7.36957 19.4826C6.93359 18.627 6.93359 17.5069 6.93359 15.2667V6.39999Z" fill="#336DFF"/>
<path d="M6.93359 18.1992H35.1003V21.6659H10.4003C8.48567 21.6659 6.93359 20.1138 6.93359 18.1992Z" fill="#152232"/>
<path fill-rule="evenodd" clip-rule="evenodd" d="M35.0996 5.19922H40.7691C42.1734 5.19922 42.8756 5.19922 43.4986 5.40976C44.0497 5.59598 44.5535 5.90014 44.9749 6.30104C45.4514 6.75429 45.7784 7.37567 46.4325 8.61844L48.9663 13.4326V21.6659H35.0996V5.19922Z" fill="#131523"/>
<path fill-rule="evenodd" clip-rule="evenodd" d="M37.2666 7.80078H42.8999L45.9333 13.4341H37.2666L37.2666 7.80078Z" fill="white"/>
<circle cx="15.1663" cy="21.6673" r="4.33333" fill="#A1A7C4"/>
<circle cx="15.1669" cy="21.6669" r="1.73333" fill="white"/>
<circle cx="41.5999" cy="21.6673" r="4.33333" fill="#A1A7C4"/>
<circle cx="41.5995" cy="21.6669" r="1.73333" fill="white"/>
<path fill-rule="evenodd" clip-rule="evenodd" d="M0 11.2676H14.7333V14.9509V18.6342V26.0009H0L0 18.6342L0 14.9509L0 11.2676Z" fill="#D7DBEC"/>
<rect x="4.33301" y="11.2676" width="6.06667" height="4.33333" fill="#A1A7C4"/>
</svg>
